<?xml version="1.0" standalone="no"?>
<!DOCTYPE svg PUBLIC "-//W3C//DTD SVG 20010904//EN"
 "http://www.w3.org/TR/2001/REC-SVG-20010904/DTD/svg10.dtd">
<svg version="1.0" xmlns="http://www.w3.org/2000/svg"
 width="1080.000000pt" height="1080.000000pt" viewBox="0 0 1080.000000 1080.000000"
 preserveAspectRatio="xMidYMid meet">

<g transform="translate(0.000000,1080.000000) scale(0.100000,-0.100000)"
fill="#000000" stroke="none">
<path d="M5620 7186 c0 -28 52 -241 61 -250 6 -6 13 -6 19 0 16 16 -42 258
-63 262 -10 2 -17 -3 -17 -12z"/>
<path d="M6283 6980 c-66 -106 -77 -135 -54 -135 17 0 154 212 146 226 -14 22
-34 3 -92 -91z"/>
<path d="M5794 6810 c-76 -11 -173 -51 -235 -94 -9 -6 -61 -53 -115 -103 -108
-101 -117 -108 -184 -145 -59 -32 -120 -54 -199 -72 -35 -8 -73 -24 -85 -34
-16 -16 -26 -18 -45 -11 -56 22 -110 -14 -116 -75 -2 -19 -14 -50 -28 -68 -13
-18 -30 -48 -37 -67 -15 -38 -15 -154 0 -159 5 -2 10 -13 10 -24 0 -30 50 -94
94 -120 35 -21 57 -40 103 -90 23 -25 67 -22 101 7 25 21 34 24 57 15 20 -8
42 -6 88 7 82 23 294 23 352 1 28 -11 48 -13 64 -6 34 12 18 22 -69 44 -94 24
-228 24 -332 0 -119 -27 -123 -23 -159 139 -23 106 -35 133 -52 116 -7 -7 -1
-52 18 -136 31 -137 29 -157 -17 -163 -14 -2 -30 3 -36 11 -6 7 -25 68 -40
136 -16 67 -32 125 -36 128 -3 4 -11 2 -17 -4 -10 -10 -1 -71 28 -175 6 -24
-22 -14 -61 21 -32 29 -76 114 -76 148 0 55 23 123 55 160 24 29 32 46 28 64
-6 32 21 61 51 57 12 -2 27 -16 36 -35 19 -42 44 -39 46 6 2 45 17 56 104 76
152 36 239 87 391 231 136 128 219 169 364 180 247 18 459 -132 540 -384 28
-84 17 -235 -23 -329 -29 -68 -30 -73 -12 -73 26 0 53 55 74 147 30 135 18
238 -44 368 -51 108 -155 210 -260 258 -102 46 -224 64 -326 47z"/>
<path d="M5025 6770 c-4 -7 -1 -18 6 -25 28 -28 192 -125 210 -125 41 0 14 28
-88 90 -125 77 -119 74 -128 60z"/>
<path d="M6644 6456 c-95 -24 -114 -31 -114 -47 0 -15 38 -11 158 17 77 18
112 30 112 40 0 20 -46 16 -156 -10z"/>
<path d="M5542 6305 c-183 -61 -338 -117 -344 -123 -35 -35 52 -14 358 88 185
61 338 110 340 107 6 -6 53 -211 49 -215 -2 -2 -32 -7 -67 -12 -150 -19 -315
-41 -338 -45 -14 -2 -81 -11 -150 -20 -146 -19 -170 -24 -170 -36 0 -23 27
-21 375 26 55 7 156 21 225 30 138 17 170 24 170 34 0 3 -14 68 -32 144 -31
133 -32 137 -57 136 -14 -1 -176 -52 -359 -114z"/>
</g>
</svg>
